<mxfile host="app.diagrams.net" modified="2023-06-05T04:28:37.400Z" agent="Mozilla/5.0 (Macintosh; Intel Mac OS X 10_15_7) AppleWebKit/537.36 (KHTML, like Gecko) Chrome/114.0.0.0 Safari/537.36" version="21.2.1" etag="qx2z_d9Hhq36qsWe6h97" type="github">
  <diagram name="ページ1" id="GqWr_PCRqfIjTLGTQ480">
    <mxGraphModel>
      <root>
        <mxCell id="0" />
        <mxCell id="1" parent="0" />
      </root>
    </mxGraphModel>
  </diagram>
</mxfile>
